<?xml version="1.0" encoding="utf-8"?>
<!-- Generator: Adobe Illustrator 19.0.0, SVG Export Plug-In . SVG Version: 6.00 Build 0)  -->
<svg version="1.1" id="Layer_1" xmlns="http://www.w3.org/2000/svg" xmlns:xlink="http://www.w3.org/1999/xlink" x="0px" y="0px"
	 viewBox="0 0 391.2 322.5" style="enable-background:new 0 0 391.2 322.5;" xml:space="preserve">
<style type="text/css">
	.st0{fill:#4E5567;}
</style>
<path class="st0" d="M381.8,160.8c0,18.9-6.6,35.2-19.8,48.6c-33.1,33.3-66.4,66.5-99.6,99.8c-2.3,2.3-3.6,2.4-5.8,0
	c-4-4.4-8.3-8.7-12.7-12.7c-2.7-2.5-2.8-3.8-0.1-6.5c29.8-29.6,59.4-59.3,89.1-89c3.5-3.5,7.1-7,10.6-10.6
	c15.8-16.3,16.1-41.8,0.8-58.3c-15.4-16.6-40.7-18.4-58.2-4.1c-2.2,1.8-4.2,3.8-6.2,5.8c-37.4,37.3-74.7,74.6-112,112.1
	c-2.8,2.9-4.4,3.3-7.2,0.1c-3.5-4.2-7.5-8.1-11.7-11.6c-3.4-2.9-2.6-4.4,0.2-7.2c23.9-23.7,47.7-47.5,71.5-71.3
	c14.5-14.5,29-29,43.5-43.5c19.9-19.9,49.4-25.8,75.1-15.1C365.5,108,381.7,132.4,381.8,160.8z"/>
<path class="st0" d="M82.8,229.6c-34.2,0.1-59.1-16.5-69.9-42.3c-10.8-26-4.9-55.3,15.6-75.9c32.8-32.9,65.7-65.7,98.5-98.7
	c2.5-2.5,3.9-2.5,6.2,0c4,4.4,8.3,8.7,12.7,12.7c2.6,2.4,2.4,3.7,0,6.1c-33.2,33-66.3,66.1-99.4,99.3c-12.8,12.8-16.1,31.7-8.5,47.9
	c7.3,15.8,23.8,25.7,41.2,24.5c11.7-0.8,21.2-6,29.4-14.2c37.6-37.8,75.4-75.4,113-113.2c3.3-3.3,4.8-2.9,7.5,0.2
	c3.6,4.1,7.6,8,11.7,11.7c2.7,2.4,2.9,3.7,0.1,6.4c-21.6,21.3-43,42.8-64.4,64.2c-17,17-33.9,33.9-50.9,50.9
	C112.1,222.7,95.8,229.3,82.8,229.6z"/>
<path class="st0" d="M291.8,43c-0.5,0.5-1,1.1-1.6,1.7c-4.8,4.8-9.7,9.6-14.4,14.5c-1.7,1.8-2.8,1.6-4.4-0.1c-2-2.2-4.2-4.3-6.3-6.4
	c-17.8-17.7-43.7-17.8-61.5,0c-37.9,37.8-75.7,75.6-113.4,113.6c-3.7,3.7-5.7,3.8-9-0.1c-3.6-4.3-7.8-8.2-12-12
	c-2-1.8-1.7-3,0.1-4.7c39.3-39.2,78.2-78.8,118-117.4c27.2-26.4,69.3-25.1,96.3,1.7c2.2,2.2,4.5,4.5,6.7,6.7
	C290.8,41.1,291.8,41.6,291.8,43z"/>
<path class="st0" d="M156.1,308.5c-21.5-0.2-38.5-8.4-52.6-23.2c-6.1-6.4-6.2-6.3-0.1-12.3c3.7-3.7,7.4-7.2,10.9-11
	c1.4-1.4,2.2-1.4,3.5,0c2.2,2.5,4.7,4.7,7,7.1c17.5,17.4,43.6,17.5,61.2,0c38.2-38.1,76.4-76.3,114.4-114.5c2.8-2.8,4.3-3.5,7.2-0.2
	c3.9,4.5,8.2,8.7,12.7,12.7c2.4,2.1,2,3.3-0.1,5.3c-19.2,19-38.2,38.1-57.3,57.2c-20.2,20.1-40.2,40.4-60.6,60.2
	C189.4,302.6,173.3,308.3,156.1,308.5z"/>
</svg>
