<?xml version="1.0" encoding="utf-8"?>
<!-- Generator: Adobe Illustrator 19.0.0, SVG Export Plug-In . SVG Version: 6.00 Build 0)  -->
<svg version="1.1" id="Layer_1" xmlns="http://www.w3.org/2000/svg" xmlns:xlink="http://www.w3.org/1999/xlink" x="0px" y="0px"
	 viewBox="-419 265.3 120 31.5" style="enable-background:new -419 265.3 120 31.5;" xml:space="preserve">
<style type="text/css">
	.st0{fill:#4E5567;}
</style>
<path class="st0" d="M-379.4,277.8c0-2.1-2-4.3-5.5-4.3c-3.9,0-8.2,2.9-8.8,8.6c-0.7,5.8,2.9,8.4,6.5,8.4s5.5-1.4,7.4-3.3
	c-1.7-2.1-3.8-1.1-4.2-0.9c-0.7,0.4-1.5,0.6-2.2,0.5c-1.4,0-2.8-0.6-2.8-3.2C-380.1,282.7-379.4,279.9-379.4,277.8L-379.4,277.8z
	 M-383.8,278.2c-0.1,0.6-0.3,1.7-4.8,2.4c1-3.4,2.8-3.7,3.6-3.7c0.7,0,1.2,0.5,1.2,1.1C-383.8,278.1-383.8,278.1-383.8,278.2
	L-383.8,278.2z M-398.9,278.7l-2.1,6.6l-1.5-11.4c-3.3,0-5,2.3-5.9,4.8l-2.5,6.6l-0.4-6.5c-0.2-3-3-4.9-5.2-4.9l2.7,16.5
	c3.4,0,5.3-2.3,6.2-4.8l2.1-5.6c0,0.2,1.5,10.4,1.5,10.4c3.4,0,5.3-2.2,6.3-4.6l4.8-11.9C-396.2,273.9-398,276.3-398.9,278.7
	L-398.9,278.7z M-366.7,273.5c-2.1,0-3.7,1.2-5.1,2.9v0l1.2-9.9c-2.8,0-5.1,2.5-5.6,6.1l-2.1,17.7c1.6,0,3.3-0.5,4.3-1.7
	c0.8,1.1,2.1,1.9,3.9,1.9c4.8,0,8-5.5,8-10.7C-362.1,275-364.4,273.5-366.7,273.5L-366.7,273.5z M-367.2,282
	c-0.5,2.9-2.1,4.9-3.7,4.9s-2.2-0.7-2.2-0.7c0.3-2.5,0.5-4.1,1.1-5.4c0.6-1.3,1.9-3.5,3.3-3.5C-367.3,277.3-366.7,279.1-367.2,282
	L-367.2,282z M-350.3,273.9h-3.3l0-0.2c0.2-2.2,0.7-3.3,2.4-3.5c1.2-0.1,1.7-0.7,1.8-1.4l0.4-2.3c-6.6,0-8.8,2.8-9.3,7.2l0,0.1h-0.1
	c-1.1,0-2.3,1.2-2.5,2.8l-0.1,0.6h2.2l-1.9,15.5l-0.6,2.8c0.1,0,0.2,0,0.2,0c3.1-0.1,5.1-2.6,5.5-6.2l1.5-12.1h1c1,0,2.2-1,2.4-2.7
	L-350.3,273.9z M-333,273.6c-3.8,0-7.4,2.8-8.6,7.3s0.6,9.7,6.2,9.7s8.9-5.5,8.9-10C-326.5,276-329.5,273.6-333,273.6L-333,273.6z
	 M-331.5,281.9c-0.2,2-1.1,5.1-3.5,5.1s-2.1-3.6-1.9-5.3c0.3-1.8,1.3-4.4,3.4-4.4C-331.4,277.3-331.2,279.6-331.5,281.9
	L-331.5,281.9z M-307.6,278.7l-2.1,6.6c-0.1-0.5-1.5-11.4-1.5-11.4c-3.3,0-5,2.3-5.9,4.8l-2.5,6.6c0-0.5-0.4-6.5-0.4-6.5
	c-0.2-3-3-4.9-5.2-4.9l2.7,16.5c3.4,0,5.3-2.3,6.2-4.8l2.1-5.6c0,0.2,1.5,10.4,1.5,10.4c3.4,0,5.3-2.2,6.3-4.6l4.8-11.9
	C-304.9,273.9-306.7,276.2-307.6,278.7L-307.6,278.7z M-347.1,266.6l-2.8,22.6l-0.6,2.8c0.1,0,0.2,0,0.2,0c3,0,5.1-2.7,5.5-6l1.6-13
	C-342.6,269-345,266.6-347.1,266.6L-347.1,266.6z"/>
</svg>
