<?xml version="1.0" encoding="utf-8"?>
<!-- Generator: Adobe Illustrator 19.0.0, SVG Export Plug-In . SVG Version: 6.00 Build 0)  -->
<svg version="1.1" id="Layer_1" xmlns="http://www.w3.org/2000/svg" xmlns:xlink="http://www.w3.org/1999/xlink" x="0px" y="0px"
	 viewBox="0 0 1917.2 696.1" style="enable-background:new 0 0 1917.2 696.1;" xml:space="preserve">
<style type="text/css">
	.st0{fill:#4E5567;}
	.st1{fill:#59ABF1;}
	.st2{fill:#53A8F1;}
	.st3{fill:#8EC6F5;}
	.st4{fill:#9DCDF6;}
	.st5{fill:#FEFEFE;}
</style>
<g>
	<path class="st0" d="M722.2,309.2c-18.5-47.6-78.2-50.3-104.9-19.2c-9.4,10.9-13.8,23.9-17.6,37.4c-0.9,3.2,0,3.6,2.9,3.6
		c20.4-0.1,40.9-0.1,61.3-0.1c20.6,0,41.1,0,61.7,0c2.5,0,3.4-0.3,2.6-3.2C726.4,321.5,724.6,315.3,722.2,309.2z"/>
	<path class="st0" d="M1244.1,306c-21,38.2-18.8,76.8,5.9,112.8c18.4,27,61.2,28.8,83.3,4.7c16.6-18.1,23.2-39.9,23.7-61.4
		c0-22.5-5.8-42.4-16.2-58.4C1317.3,267.7,1264.7,268.4,1244.1,306z"/>
	<path class="st0" d="M1899.6,237.8c-0.3-6.5-0.1-13.2-2.2-19.5c-9.7-29-29.8-47.8-57.9-58.2c-19.7-7.3-39.9-7-59.8-0.5
		c-21.3,7-38.2,19.8-49.9,39.1c-6.3,10.4-10.7,21.7-15.1,33c-0.7,1.8-1.2,3.8-2.6,5.4c-1.2-1.3-1.5-2.5-1.9-3.8
		c-3.5-10.4-7.8-20.4-13-30.1c-10.2-18.9-25.1-32.7-45-41c-12.5-5.2-25.7-7.4-39.2-7.5c-13.6-0.1-11.9,2-11.9-12.1
		c0-11.3-0.2-22.6-1.5-33.9c-3.4-29.8-17.5-53-42.7-69.3c-9.8-6.3-20.3-10.9-32.1-11.7c-2.8-0.2-5.7-0.2-8.5-0.9h-1.6
		c-4.7,0.6-9.4,0.6-14.1,0h-2.3c-0.3,0.3-0.6,0.3-1,0.4c0,0,0,0,0,0c-0.4,0-0.8,0-1.3,0c-6.1,0.7-12.3,0.5-18.3,2.4
		c-15,4.8-27.4,13.4-38.2,24.7c-10.7,11.2-17.8,24.3-22.1,39c-2.9,9.8-3.6,20-3.7,30.1c-0.3,19.4-0.1,38.8-0.1,58.2
		c0,1.3,0.5,2.8-0.9,3.6c-1.4,0.8-2.4-0.5-3.4-1.3c-15.4-11-32.2-19.1-50.2-24.8c-23.2-7.3-46.9-9.1-71-7.1
		c-4.6,0.4-5.8-0.5-5.9-5.3c-0.3-10.8,0.2-21.6-0.7-32.4c-2-26-11.1-48.7-30.8-66.2c-12.2-10.8-26-18.9-42.8-20.5
		c-3.2-0.3-6.4-0.2-9.6-1h-3.1c-3.3,0.9-6.6,0.2-10,0.4h-4.2c-13.4-0.1-25.9,3.1-37.4,10.3c-20.3,12.8-34.2,30.4-41.4,53.4
		c-3.3,10.6-4,21.5-4.2,32.4c-0.4,22-0.1,44-0.1,66c0,1.3,0.7,3.2-0.9,3.9c-1.3,0.6-2.3-1-3.3-1.7c-19.5-14.8-41-25.6-64.5-32.3
		c-23.9-6.9-48.3-9.4-73-6.6c-24.4,2.7-47.7,9.2-69.4,21.1c-16.3,9-31.1,19.9-44.5,32.7c-7.9,7.5-15,15.9-21.7,24.5
		c-2.5,3.3-3.7,3.4-6,0.4c-9.6-12.4-20.4-23.6-32.3-33.8c-15.1-12.9-31.7-23.3-49.9-30.9c-27.9-11.8-57-16.6-87.3-14.5
		c-25.8,1.8-50.2,8.4-73.4,19.8c-6.9,3.4-13.5,7.4-19.9,11.5c-4.5,2.9-5.1,2.8-9-1.1c-1.8-1.8-3.5-3.5-5.3-5.2
		c-7.5-7.3-16.1-12.7-25.6-16.9c-16.7-7.3-34-10.3-52.2-8c-14.9,1.8-28.7,6.7-40.9,15.3c-15.9,11.1-27,26.2-34.3,44
		c-0.5,1.1-0.7,2.5-2.2,3.3c-2.3-5.2-4.6-10.2-7.1-15c-9.1-17.6-22.5-30.9-40.5-39.2c-18.7-8.7-38.3-11.2-58.7-7.5
		c-23.2,4.2-42.4,15.2-56.8,34.3c-5.7,7.5-9.5,16.1-13.8,24.5c-0.4,0.9-0.4,2.1-1.9,2.3c-1.4-1.5-2-3.6-2.8-5.5
		c-4.8-10.9-10.9-21.1-19.3-29.6c-20.9-20.9-46.2-29.7-75.6-26.9c-25.7,2.4-47.6,12.6-64.5,32.5C32.8,195,26,206.3,24.9,220.1
		c-0.2,2.3-0.2,4.6-0.9,6.9v14.9c0.8,1.3,0.3,2.7,0.4,4c0,0,0,0.1,0,0.1v3.7c0.5,9,0.9,18,3.6,26.7c2.2,7,4.6,13.8,7,20.7
		c7.9,22.8,16,45.4,24.1,68.1c14.6,40.9,29,82,43.8,122.9c5.3,14.6,12,28.5,21.9,40.8c9.8,12.2,21.6,21.7,35.8,28.2
		c18.7,8.5,38.3,10.2,58.5,7.7c13.7-1.7,26.5-6.4,38.3-13.6c14.1-8.7,24.4-20.9,32.6-35.1c3-5.3,3.4-5.3,6.6,0.1
		c9.6,16.4,22.1,29.9,39.1,38.8c21.1,10.9,43.5,13.9,66.7,9.7c23.5-4.3,43.1-15.5,58.3-34.2c10.9-13.4,18.1-28.8,24.2-44.8
		c1.6-4.3,3-8.7,4.7-12.9c0.7,0.2,0.9,0.3,1.1,0.5c1,1.1,1.7,2.3,2.4,3.5c10.1,15.7,22.2,29.5,36.4,41.5
		c15.9,13.5,33.6,24.1,52.7,32.3c25.5,11,52.2,15.9,79.8,15.7c10.2-0.1,20.5-0.7,30.7-1.9c30.8-3.8,60.2-11.8,87.6-26.5
		c15.7-8.4,30-18.8,42.8-31.2c6.5-6.3,6-6.8,12.6,0.2c15,15.7,32.4,28.2,51.7,37.9c28.9,14.6,59.8,20.7,92,21.7
		c9.1,0.3,18.2-0.6,27.2-1.5c17.2-1.7,34-5.1,50.4-10.2c19.5-6.1,37.9-14.5,55.6-24.6c3-1.7,5.3-1.5,7.6,1c3,3.1,6.3,5.9,9.4,8.8
		c10.8,10.1,23.4,17,37.7,20.3c22.7,5.3,44.7,2.4,66.1-6.5c3.4-1.4,6.4-1.4,9.7,0c29.2,12.5,59.6,15.1,90.6,9.9
		c33-5.5,62.2-19.2,87.3-41.5c2.9-2.6,4.3-2.5,6.6,0.8c5.1,7.3,10.7,14,17.4,19.9c25.4,22.2,54.7,28.5,87,20.4
		c18.2-4.5,33.1-15,45.4-29c4.3-4.9,8.5-10,11.1-16.1c-0.7,1.8-1.3,3.7-1.6,5.6c-3.6,18.5-6.9,37.1-9.2,55.8
		c-1.3,11-2.1,22.1,0.4,33c4.6,20.2,15.1,36.8,31.7,49.2c12,8.9,25.5,15.5,40.6,17.1c9.6,1.1,19.3,1,29,0.7
		c13.5-0.3,25.7-4.2,36.9-11.4c18.5-11.8,31.4-28.3,40-48.3c8.9-20.7,17-41.7,25.5-62.6c14.9-36.8,29.8-73.6,44.6-110.4
		c15.7-38.7,31.4-77.5,46.9-116.2c7.2-17.9,15-35.5,21.4-53.7c1.4-4.1,2.8-8.1,3.3-12.4C1899.4,255.7,1900,246.7,1899.6,237.8z
		 M511.3,248.9c-1,6.6-2.8,12.9-5.1,19.2c-24,67.3-47.9,134.7-72,202c-3.6,10.1-8.3,19.6-15.1,28c-18.1,22.5-61.7,21.6-76.5-7.5
		c-3.8-7.5-6.7-15.2-9.3-23.1c-12.8-39.7-25.6-79.4-38.4-119.1c-0.4-1.3-0.5-2.8-2.1-4.3c-7.4,23-14.7,45.6-22,68.3
		c-7.4,22.8-14.6,45.5-22.2,68.2c-6.1,18.2-18.6,29.8-37.7,32.7c-18.8,2.8-34.6-3.4-46.4-18.9c-4.2-5.5-7.6-11.5-9.9-18.1
		C130,406.9,105.3,337.4,80.7,268c-3.4-9.6-5.8-19.5-5.8-29.8c0-11.7,5.2-20.5,14.7-26.9c14.6-9.8,36.2-9.3,50.5,0.9
		c6.8,4.9,11,11.5,13.5,19.5c16.2,53.5,32.4,107,48.7,160.5c0.1,0.2,0.2,0.5,0.5,0.8c1.4-0.8,1.4-2.4,1.8-3.6
		c15.4-48.9,30.7-97.7,46.1-146.6c2.3-7.2,4.6-14.4,8.6-20.8c9.1-14.7,22.8-19.6,39.2-17.7c15.6,1.9,27.5,9.6,32.8,25.1
		c16.4,47.9,30.6,96.4,46,144.6c2.1,6.5,4.2,13.1,6.7,20.6c4.5-14.6,8.7-28.2,12.9-41.9c12.3-40.7,24.6-81.4,37.2-122
		c6.2-20,27.1-30.2,48.5-25.4C502.6,209.8,514.4,227.9,511.3,248.9z M802.3,362.5c-2.4,14-14,23.6-28.2,23.8
		c-28.9,0.5-57.8,0.8-74.4,0.7c-41.7,0-71.1,0.1-100.5-0.1c-3.5,0-4.3,0.8-3,4c1.5,3.9,2.7,7.9,4.2,11.8c8.6,22.5,26.6,33.6,48.7,39
		c23.8,5.8,46.4,1.5,68-9.6c10.4-5.4,20.4-11.5,31.1-16.3c22.4-10.1,44.7,2.2,48.2,26.6c0.8,5.7-0.4,11.1-3,16.2
		c-6.3,12.3-16.6,20.6-28.2,27.4c-26.2,15.6-54.7,24.4-85.1,27c-28.5,2.4-56.1-1.1-82.3-13.1c-40.3-18.6-66.1-50-77.7-92.4
		c-14.1-51.1-7.1-99.6,23.7-143.2c30-42.4,72-62.5,123.9-59.7c38.6,2.1,70.2,19.5,95.9,47.8c20.9,23,34,50,38.3,80.9
		C803.2,343.1,804,352.8,802.3,362.5z M1121.1,358.7c-0.7,15.2-13.1,27.4-28.4,27.7c-43.1,0.8-86.2,0.5-129.3,0.4
		c-15.8-0.1-31.5,0.2-47.3,0.4c-0.9,0-1.8,0.1-2.7,0.2c7.4,29,20.8,47.4,57.5,55.1c24,5.1,46.4-0.7,67.7-12.2
		c9.7-5.3,19.5-10.4,29.3-15.4c25.1-12.6,47.9,12.2,46.7,32.1c-0.5,8.5-4.7,15.3-9.9,21.6c-9.3,11.1-21.5,18.4-34.3,24.6
		c-30.5,14.7-62.8,22.1-96.7,20.4c-71.7-3.6-123.3-48.8-137.8-114.7c-11.5-52.7-1.7-101.6,32.8-143.5c33-40,76.5-56.8,127.9-49.4
		c49.7,7.1,84.4,36.2,107.9,79.4C1117.1,308.2,1122.3,332.8,1121.1,358.7z M1421.5,434c-13.5,31-35.2,55.5-66.7,69.3
		c-31,13.6-62.5,15-93.7,0.2c-11.8-5.6-21.6-14-29.9-25c-2.1,4.3-3.8,8.1-5.7,11.8c-7.4,14.4-21.7,22-38.1,20.3
		c-17.5-1.8-30.2-12.3-34.5-28.2c-2.2-8.1-2.4-16.5-2.4-24.8c0-89.5,0-178.9,0.1-268.4c0-22.9-0.1-45.8,0.1-68.8
		c0.1-13.7,4.6-25.8,15.5-34.4c12-9.5,25.7-11.3,39.6-4.8c14.2,6.6,22.3,18.1,23,34c1.7,36.7,0.5,73.4,0.7,110.1c0,1.6,0,3.1,0,4.7
		c1.9,0.4,2.7-1,3.8-1.8c21.1-14.4,44-24,69.7-24.4c48.4-0.8,85.5,20.2,109.1,62.1C1442.6,320,1446.5,376.7,1421.5,434z
		 M1547.6,474.3c-0.2,16-8.2,28.2-22.4,35.5c-13.4,6.9-27.1,6.2-39.7-2.1c-12.9-8.5-19-21.3-19-36.5c-0.1-104.4-0.1-208.9-0.1-313.3
		c0-11.2,0-22.4-0.1-33.6c-0.1-8.3,1.5-16.3,5-23.9c7.3-15.7,23.8-24.7,40.9-22.4c18.4,2.4,31.7,15.3,34.8,33.5
		c1.6,9.4,1.5,18.9,1.5,28.4c0,52.3,0,104.7,0,157C1548.3,356.1,1548.3,415.2,1547.6,474.3z M1845.1,260.7
		c-21.7,54.2-43.6,108.2-65.5,162.4c-22.9,56.8-45.8,113.5-68.8,170.3c-3.4,8.5-7.6,16.6-13.7,23.5c-10.4,11.7-23.7,14.1-38.1,10.7
		c-13.9-3.2-24.5-10.8-28.7-25.2c-2.7-9.2-0.6-18.1,2.4-26.8c7.6-21.6,17-42.5,25.4-63.7c3-7.7,6.1-15.5,9.4-23.1
		c1.6-3.5,1.5-6.3,0.1-9.9c-28.2-69.5-56.2-139.1-84.2-208.6c-3-7.5-5.9-15.1-6.7-23.2c-1.7-16.8,7.9-31.1,24.7-37.2
		c19.5-7.1,39.8,0.3,49.8,18.5c7,12.8,10.9,27,16,40.6c14,37.8,27.8,75.6,41.7,113.4c0.4,1.1,0.9,2.1,1.7,4.1
		c7.1-17.9,13.8-35.2,20.7-52.5c13.4-33.8,27-67.6,40.1-101.5c9-23.5,43.9-36.5,67.4-12.8C1850.2,231.2,1851,245.9,1845.1,260.7z"/>
	<path class="st0" d="M1038.1,310.3c-18-48.6-78-51.6-105-20.6c-9.4,10.9-13.9,23.8-17.8,37.3c-0.9,3.2-0.3,4,3,3.9
		c20.3-0.1,40.6-0.1,60.9-0.1v0c20.6,0,41.1-0.1,61.7,0.1c3.2,0,3.7-0.8,2.7-3.6C1041.6,321.7,1040.1,315.9,1038.1,310.3z"/>
</g>
<path class="st1" d="M1514.8,27c-4.7,1.3-9.4,1.2-14.1,0C1505.4,27,1510.1,27,1514.8,27z"/>
<path class="st2" d="M1195.3,27c-3.3,1.5-6.8,0.5-10.2,0.7c-0.5-0.3-0.5-0.5,0.1-0.7C1188.5,27,1191.9,27,1195.3,27z"/>
<path class="st3" d="M1185.1,27c0,0.2,0,0.5-0.1,0.7c-1.3,0-2.6,0-3.9,0c0-0.2,0.1-0.4,0.1-0.7C1182.5,27,1183.8,27,1185.1,27z"/>
<path class="st1" d="M24.1,241.9c0.9,1.2,0.8,2.6,0.7,4c-0.3,0.4-0.5,0.3-0.7-0.1C24.1,244.5,24.1,243.2,24.1,241.9z"/>
<path class="st4" d="M24.1,245.8c0.2,0.1,0.4,0.1,0.7,0.1c0,1.3,0,2.6,0,3.9c-0.2,0-0.5,0-0.7-0.1C24.1,248.4,24.1,247.1,24.1,245.8
	z"/>
<path class="st5" d="M1356.9,362c-0.4,21.5-7.1,43.3-23.7,61.4c-22.1,24.1-64.8,22.3-83.3-4.7c-24.6-36-26.9-74.5-5.9-112.8
	c20.6-37.5,73.3-38.3,96.6-2.3C1351.1,319.6,1356.8,339.5,1356.9,362z"/>
<path class="st5" d="M725.7,330.9c-20.6-0.1-41.1,0-61.7,0c-20.4,0-40.9,0-61.3,0.1c-2.9,0-3.8-0.3-2.9-3.6
	c3.8-13.5,8.2-26.5,17.6-37.4c26.7-31.1,86.4-28.4,104.9,19.2c2.3,6.1,4.1,12.3,6,18.5C729.1,330.6,728.2,330.9,725.7,330.9z"/>
<path class="st5" d="M1040.9,330.9c-20.6-0.1-41.1-0.1-61.7-0.1v0c-20.3,0-40.6-0.1-60.9,0.1c-3.3,0-3.9-0.7-3-3.9
	c3.8-13.5,8.3-26.4,17.8-37.3c27-31,86.9-28,105,20.6c2.1,5.6,3.6,11.4,5.5,17C1044.6,330.2,1044.1,331,1040.9,330.9z"/>
<path class="st0" d="M1356.9,362c-0.4,21.5-7.1,43.3-23.7,61.4c-22.1,24.1-64.8,22.3-83.3-4.7c-24.6-36-26.9-74.5-5.9-112.8
	c20.6-37.5,73.3-38.3,96.6-2.3C1351.1,319.6,1356.8,339.5,1356.9,362z"/>
<path class="st0" d="M725.7,330.9c-20.6-0.1-41.1,0-61.7,0c-20.4,0-40.9,0-61.3,0.1c-2.9,0-3.8-0.3-2.9-3.6
	c3.8-13.5,8.2-26.5,17.6-37.4c26.7-31.1,86.4-28.4,104.9,19.2c2.3,6.1,4.1,12.3,6,18.5C729.1,330.6,728.2,330.9,725.7,330.9z"/>
<path class="st0" d="M1040.9,330.9c-20.6-0.1-41.1-0.1-61.7-0.1v0c-20.3,0-40.6-0.1-60.9,0.1c-3.3,0-3.9-0.7-3-3.9
	c3.8-13.5,8.3-26.4,17.8-37.3c27-31,86.9-28,105,20.6c2.1,5.6,3.6,11.4,5.5,17C1044.6,330.2,1044.1,331,1040.9,330.9z"/>
</svg>
