<?xml version="1.0" encoding="utf-8"?>
<!-- Generator: Adobe Illustrator 19.0.0, SVG Export Plug-In . SVG Version: 6.00 Build 0)  -->
<svg version="1.1" id="Layer_1" xmlns="http://www.w3.org/2000/svg" xmlns:xlink="http://www.w3.org/1999/xlink" x="0px" y="0px"
	 viewBox="-351 153 256 255" style="enable-background:new -351 153 256 255;" xml:space="preserve">
<style type="text/css">
	.st0{fill:#4E5567;}
</style>
<g>
	<path class="st0" d="M-332.9,280.5c0,43.3,25.2,80.7,61.6,98.4l-52.2-143C-329.5,249.6-332.9,264.6-332.9,280.5L-332.9,280.5z
		 M-149.7,275c0-13.5-4.9-22.9-9-30.2c-5.5-9-10.7-16.6-10.7-25.6c0-10.1,7.6-19.4,18.4-19.4c0.5,0,0.9,0.1,1.4,0.1
		c-19.5-17.8-45.4-28.7-73.9-28.7c-38.2,0-71.8,19.6-91.4,49.3c2.6,0.1,5,0.1,7,0.1c11.4,0,29.2-1.4,29.2-1.4c5.9-0.3,6.6,8.3,0.7,9
		c0,0-5.9,0.7-12.5,1l39.8,118.5l23.9-71.8l-17-46.7c-5.9-0.3-11.5-1-11.5-1c-5.9-0.3-5.2-9.4,0.7-9c0,0,18.1,1.4,28.8,1.4
		c11.4,0,29.2-1.4,29.2-1.4c5.9-0.3,6.6,8.3,0.7,9c0,0-5.9,0.7-12.5,1l39.5,117.6l10.9-36.5C-153.3,295.2-149.7,284.3-149.7,275
		L-149.7,275z M-221.6,290.1l-32.8,95.4c9.8,2.9,20.2,4.5,30.9,4.5c12.7,0,25-2.2,36.3-6.2c-0.3-0.5-0.6-1-0.8-1.5L-221.6,290.1
		L-221.6,290.1z M-127.5,228c0.5,3.5,0.7,7.2,0.7,11.2c0,11.1-2.1,23.6-8.3,39.2l-33.4,96.6c32.5-19,54.4-54.2,54.4-94.5
		C-114.1,261.5-119,243.6-127.5,228L-127.5,228z M-223.5,153c-70.3,0-127.5,57.2-127.5,127.5c0,70.3,57.2,127.5,127.5,127.5
		C-153.2,408-96,350.8-96,280.5C-96,210.2-153.2,153-223.5,153L-223.5,153z M-223.5,402.2c-67.1,0-121.7-54.6-121.7-121.7
		c0-67.1,54.6-121.7,121.7-121.7c67.1,0,121.7,54.6,121.7,121.7C-101.8,347.6-156.4,402.2-223.5,402.2L-223.5,402.2z"/>
</g>
</svg>
